name analog
datacolumns 19
datarows 18
range 0.0 0.0085
endheader
time	ground_force_vx	ground_force_vy	ground_force_vz	ground_force_px	ground_force_py	ground_force_pz	l_ground_force_vx	l_ground_force_vy	l_ground_force_vz	l_ground_force_px	l_ground_force_py	l_ground_force_pz	ground_torque_x	ground_torque_y	ground_torque_z	l_ground_torque_x	l_ground_torque_y	l_ground_torque_z
0.0	-0.0	-0.0	-0.0	-4.906578063964844	39.88969039916992	-508.0645446777344	8.032327651977539	-41.864479064941406	-284.2094116210937	-0.0	-0.0	-0.0	-0.0	-0.0	-0.0	59946.02734375	19506.951171875	-3749.3369140625
0.0005	-0.0	-0.0	-0.0	-5.230112552642822	39.1411247253418	-504.11962890625	7.955896854400635	-41.6677131652832	-283.2105712890625	-0.0	-0.0	-0.0	-0.0	-0.0	-0.0	60138.4375	19637.2734375	-3657.732177734375
0.001	-0.0	-0.0	-0.0	-4.906578063964844	39.27301025390625	-503.6345825195313	8.133427619934082	-41.65999603271485	-282.43328857421875	-0.0	-0.0	-0.0	-0.0	-0.0	-0.0	60011.16796875	19493.84765625	-3644.12255859375
0.0015	-0.0	-0.0	-0.0	-4.9343109130859375	39.492000579833984	-503.0618591308594	8.4553804397583	-41.66764068603516	-282.274169921875	-0.0	-0.0	-0.0	-0.0	-0.0	-0.0	59869.875	19754.34765625	-3614.26806640625
0.002	-0.0	-0.0	-0.0	-5.043944835662842	39.12193298339844	-501.5967712402344	8.133639335632324	-41.74852752685547	-282.46368408203125	-0.0	-0.0	-0.0	-0.0	-0.0	-0.0	59959.44921875	19517.171875	-3699.2353515625
0.0025	-0.0	-0.0	-0.0	-4.886014461517334	39.14879608154297	-500.9181213378906	8.468235969543457	-41.98032379150391	-284.2094116210937	-0.0	-0.0	-0.0	-0.0	-0.0	-0.0	59907.51953125	19396.818359375	-3596.42626953125
0.003	-0.0	-0.0	-0.0	-4.920368194580078	39.03911590576172	-498.1468200683594	8.632481575012207	-42.10914611816406	-284.3178100585937	-0.0	-0.0	-0.0	-0.0	-0.0	-0.0	60046.78125	19594.6171875	-3600.723876953125
0.0035	-0.0	-0.0	-0.0	-4.686887741088867	38.58679962158203	-498.5266723632813	8.721089363098145	-42.49668502807617	-285.0685119628906	-0.0	-0.0	-0.0	-0.0	-0.0	-0.0	60068.765625	19545.58203125	-3603.11376953125
0.004	-0.0	-0.0	-0.0	-4.906578063964844	38.3608627319336	-497.2515258789063	8.584484100341797	-42.61863327026367	-285.2033386230469	-0.0	-0.0	-0.0	-0.0	-0.0	-0.0	60375.26171875	19761.880859375	-3589.5205078125
0.0045000000000000005	-0.0	-0.0	-0.0	-4.645326614379883	38.58708953857422	-494.8870849609375	8.720871925354004	-42.59146118164063	-285.7938537597656	-0.0	-0.0	-0.0	-0.0	-0.0	-0.0	60511.1875	19613.060546875	-3682.956787109375
0.005	-0.0	-0.0	-0.0	-4.638946533203125	38.4566535949707	-495.5935974121094	8.89161205291748	-42.48273468017578	-287.00262451171875	-0.0	-0.0	-0.0	-0.0	-0.0	-0.0	60567.02734375	19904.67578125	-3564.15185546875
0.0055	-0.0	-0.0	-0.0	-4.323661804199219	38.058685302734375	-492.8505554199219	8.850508689880371	-42.48273468017578	-288.4245910644531	-0.0	-0.0	-0.0	-0.0	-0.0	-0.0	60984.2109375	19974.474609375	-3618.781982421875
0.006	-0.0	-0.0	-0.0	-4.4605255126953125	37.99034881591797	-491.8972473144531	9.069106101989746	-42.83602142333984	-289.3656005859375	-0.0	-0.0	-0.0	-0.0	-0.0	-0.0	61060.9609375	20179.025390625	-3644.1142578125
0.006500000000000001	-0.0	-0.0	-0.0	-4.418826103210449	37.738014221191406	-490.2367858886719	9.211432456970217	-42.95101547241211	-288.7484130859375	-0.0	-0.0	-0.0	-0.0	-0.0	-0.0	61188.23828125	20549.3046875	-3755.8310546875
0.007	-0.0	-0.0	-0.0	-4.439639091491699	37.29824447631836	-487.9671325683594	8.844396591186523	-43.37791061401367	-289.528076171875	-0.0	-0.0	-0.0	-0.0	-0.0	-0.0	61157.2734375	20515.671875	-3758.233154296875
0.0075	-0.0	-0.0	-0.0	-4.119086265563965	37.28292846679688	-486.84759521484375	8.776507377624512	-43.58966827392578	-291.0063781738281	-0.0	-0.0	-0.0	-0.0	-0.0	-0.0	61326.3125	20789.572265625	-3758.310791015625
0.008	-0.0	-0.0	-0.0	-4.030048370361328	36.8317985534668	-484.9990234375	8.687933921813965	-44.21355056762695	-291.3557434082031	-0.0	-0.0	-0.0	-0.0	-0.0	-0.0	61535.07421875	20678.25	-3819.751220703125
0.0085	-0.0	-0.0	-0.0	-4.329329013824463	36.99958801269531	-484.2928161621094	8.740802764892578	-43.9786491394043	-291.8688049316406	-0.0	-0.0	-0.0	-0.0	-0.0	-0.0	61678.36328125	21047.716796875	-3897.89306640625
